<svg width="70" height="70" fill="none" xmlns="http://www.w3.org/2000/svg"><g clip-path="url(#clip0_4906_594)" fill="red"><path d="M28.489 43.654l-2.573-.855a2.07 2.07 0 01-1.416-1.966 2.333 2.333 0 114.667 0H31.5a4.667 4.667 0 00-3.5-4.5v-2.5h-2.333v2.5a4.667 4.667 0 00-3.5 4.5 4.4 4.4 0 003.01 4.18l2.573.854a2.07 2.07 0 011.417 1.966 2.333 2.333 0 11-4.667 0h-2.333a4.667 4.667 0 003.5 4.501v2.5H28v-2.5a4.667 4.667 0 003.5-4.5 4.4 4.4 0 00-3.011-4.18z"/><path d="M68.833 25.667H45.248a26.866 26.866 0 00-9.081-7.217v-5.033l4.2-3.15c.293-.22.466-.566.466-.934V1.167C40.833.522 40.311 0 39.667 0H35c-.31 0-.606.123-.825.342L32.667 1.85 31.158.342A1.167 1.167 0 0030.333 0h-7c-.309 0-.606.123-.824.342L21 1.85 19.492.342A1.167 1.167 0 0018.667 0H14c-.644 0-1.166.522-1.166 1.167v8.166c0 .367.173.713.466.934l4.2 3.15v5.044C8.67 22.735 0 34.214 0 48.936 0 62.322 9.78 70 26.834 70c2.768.01 5.53-.236 8.254-.733.176.441.603.731 1.079.733h32.666c.645 0 1.167-.523 1.167-1.167v-42c0-.644-.522-1.166-1.167-1.166zM15.167 8.75V2.333h3.017l1.991 1.992a1.167 1.167 0 001.65 0l1.992-1.992h6.034l1.99 1.992a1.167 1.167 0 001.65 0l1.992-1.992H38.5V8.75l-3.888 2.917H19.055L15.167 8.75zM33.833 14v3.5h-14V14h14zM35 54.218c-5.459 4.52-13.549 3.76-18.07-1.7-4.52-5.459-3.758-13.548 1.7-18.069a12.833 12.833 0 0116.37 0v19.77zm0-27.385v4.733c-7.05-4.522-16.432-2.472-20.954 4.578-4.523 7.05-2.473 16.433 4.577 20.955a15.17 15.17 0 0016.377 0v9.811a42.488 42.488 0 01-8.166.756c-7.367 0-24.5-1.824-24.5-18.73 0-11.162 6.69-25.05 17.89-29.103h13.228a22.984 22.984 0 018.672 5.834h-5.957c-.645 0-1.167.522-1.167 1.166zm32.667 40.833H37.333V37.333h30.334v30.333zm0-32.666H37.333v-7h30.334v7z"/><path d="M45.5 39.666h-4.667c-.644 0-1.166.523-1.166 1.167V45.5c0 .644.522 1.166 1.166 1.166H45.5c.644 0 1.167-.522 1.167-1.166v-4.667c0-.644-.523-1.166-1.167-1.166zm-1.167 4.667H42V42h2.333v2.333zm10.5-4.667h-4.666c-.645 0-1.167.523-1.167 1.167V45.5c0 .644.522 1.166 1.167 1.166h4.666c.645 0 1.167-.522 1.167-1.166v-4.667c0-.644-.522-1.166-1.167-1.166zm-1.166 4.667h-2.334V42h2.334v2.333zm10.5-4.667H59.5c-.644 0-1.167.523-1.167 1.167V45.5c0 .644.523 1.166 1.167 1.166h4.667c.644 0 1.166-.522 1.166-1.166v-4.667c0-.644-.522-1.166-1.166-1.166zM63 44.334h-2.333V42H63v2.333zM45.5 49h-4.667c-.644 0-1.166.522-1.166 1.166v4.667c0 .644.522 1.167 1.166 1.167H45.5c.644 0 1.167-.523 1.167-1.167v-4.667c0-.644-.523-1.166-1.167-1.166zm-1.167 4.666H42v-2.333h2.333v2.333zM54.833 49h-4.666c-.645 0-1.167.522-1.167 1.166v4.667c0 .644.522 1.167 1.167 1.167h4.666c.645 0 1.167-.523 1.167-1.167v-4.667c0-.644-.522-1.166-1.167-1.166zm-1.166 4.666h-2.334v-2.333h2.334v2.333zM45.5 58.333h-4.667c-.644 0-1.166.523-1.166 1.167v4.666c0 .645.522 1.167 1.166 1.167H45.5c.644 0 1.167-.522 1.167-1.167V59.5c0-.645-.523-1.167-1.167-1.167zM44.333 63H42v-2.334h2.333V63zm10.5-4.667h-4.666c-.645 0-1.167.523-1.167 1.167v4.666c0 .645.522 1.167 1.167 1.167h4.666c.645 0 1.167-.522 1.167-1.167V59.5c0-.645-.522-1.167-1.167-1.167zM53.667 63h-2.334v-2.334h2.334V63zm10.5-14H59.5c-.644 0-1.167.522-1.167 1.166v14c0 .645.523 1.167 1.167 1.167h4.667c.644 0 1.166-.522 1.166-1.167v-14c0-.644-.522-1.166-1.166-1.166zM63 63h-2.333V51.333H63V63zm2.333-32.667H63v2.334h2.333v-2.334zm-4.666 0h-2.334v2.334h2.334v-2.334zm-4.667 0h-2.334v2.334H56v-2.334z"/></g><defs><clipPath id="clip0_4906_594"><path fill="#fff" d="M0 0h70v70H0z"/></clipPath></defs></svg>