<svg width="70" height="70" viewBox="0 0 70 70" fill="none" xmlns="http://www.w3.org/2000/svg">
<g clip-path="url(#clip0_4906_594)">
<path d="M28.4889 43.6542L25.9164 42.799C25.0703 42.5172 24.4996 41.7251 24.5001 40.8332C24.5001 39.5445 25.5447 38.4999 26.8334 38.4999C28.1221 38.4999 29.1667 39.5445 29.1667 40.8332H31.5C31.492 38.7118 30.0543 36.8626 28.0001 36.3322V33.8333H25.6667V36.3322C23.6127 36.8626 22.1748 38.7118 22.1667 40.8332C22.1653 42.7295 23.3786 44.4134 25.1779 45.0122L27.7504 45.8674C28.5965 46.1493 29.1672 46.9413 29.1667 47.8332C29.1667 49.1219 28.1221 50.1665 26.8334 50.1665C25.5447 50.1665 24.5001 49.1219 24.5001 47.8332H22.1667C22.1748 49.9546 23.6127 51.8038 25.6667 52.3342V54.8332H28.0001V52.3342C30.0543 51.8038 31.492 49.9546 31.5 47.8332C31.5015 45.9369 30.2882 44.253 28.4889 43.6542Z" fill="#FF0000"/>
<path d="M68.8333 25.6666H45.2481C42.7826 22.6283 39.6832 20.1652 36.1668 18.4496V13.4166L40.3667 10.2666C40.6604 10.0463 40.8334 9.7005 40.8334 9.33329V1.16666C40.8334 0.522373 40.311 0 39.6667 0H35.0001C34.6906 0 34.394 0.123083 34.1753 0.341832L32.6668 1.85033L31.1583 0.341832C30.9395 0.123083 30.6429 0 30.3335 0H23.3335C23.024 0 22.7274 0.123083 22.5086 0.341832L21.0002 1.85033L19.4917 0.341832C19.2729 0.123083 18.9763 0 18.6668 0H14.0002C13.3559 0 12.8335 0.522373 12.8335 1.16666V9.33329C12.8335 9.7005 13.0065 10.0463 13.3002 10.2666L17.5002 13.4166V18.4613C8.66854 22.7347 0.000244141 34.2135 0.000244141 48.9356C0.000244141 62.3219 9.78037 69.9997 26.8335 69.9997C29.6015 70.0096 32.3646 69.7643 35.0876 69.267C35.2645 69.7083 35.6913 69.9981 36.1668 69.9997H68.8333C69.4776 69.9997 70 69.4773 70 68.833V26.8332C70 26.1889 69.4776 25.6666 68.8333 25.6666ZM15.1668 8.74996V2.33332H18.1838L20.1753 4.32482C20.6309 4.78025 21.3694 4.78025 21.825 4.32482L23.8165 2.33332H29.8505L31.8419 4.32482C32.2975 4.78025 33.036 4.78025 33.4916 4.32482L35.4831 2.33332H38.5001V8.74996L34.6116 11.6666H19.0553L15.1668 8.74996ZM33.8334 13.9999V17.4999H19.8335V13.9999H33.8334ZM35.0001 54.2183C29.541 58.7385 21.4512 57.9775 16.9308 52.5184C12.4106 47.0593 13.1716 38.9696 18.6307 34.4492C23.3788 30.5175 30.2518 30.5175 35 34.4492V54.2183H35.0001ZM35.0001 26.8332V31.5664C27.9495 27.0441 18.5678 29.0936 14.0455 36.1442C9.52327 43.1948 11.5728 52.5765 18.6234 57.0988C23.6132 60.2994 30.0104 60.2994 35.0002 57.0988V66.9104C32.3088 67.4252 29.5738 67.6783 26.8336 67.6664C19.4673 67.6664 2.33371 65.8417 2.33371 48.9356C2.33371 37.7742 9.02335 23.8862 20.2233 19.8333H33.4521C36.7523 21.086 39.7195 23.082 42.1239 25.6666H36.1669C35.5225 25.6666 35.0001 26.1889 35.0001 26.8332ZM67.6666 67.6664H37.3334V37.3332H67.6666V67.6664ZM67.6666 34.9999H37.3334V27.9999H67.6666V34.9999Z" fill="#FF0000"/>
<path d="M45.5001 39.6665H40.8334C40.1891 39.6665 39.6667 40.1889 39.6667 40.8332V45.4998C39.6667 46.1441 40.1891 46.6665 40.8334 46.6665H45.5001C46.1443 46.6665 46.6667 46.1441 46.6667 45.4998V40.8332C46.6667 40.1889 46.1443 39.6665 45.5001 39.6665ZM44.3334 44.3332H42.0001V41.9998H44.3334V44.3332Z" fill="#FF0000"/>
<path d="M54.8333 39.6665H50.1667C49.5224 39.6665 49 40.1889 49 40.8332V45.4998C49 46.1441 49.5224 46.6665 50.1667 46.6665H54.8333C55.4776 46.6665 56 46.1441 56 45.4998V40.8332C56 40.1889 55.4776 39.6665 54.8333 39.6665ZM53.6666 44.3332H51.3333V41.9998H53.6666V44.3332Z" fill="#FF0000"/>
<path d="M64.1666 39.6665H59.4999C58.8556 39.6665 58.3333 40.1889 58.3333 40.8332V45.4998C58.3333 46.1441 58.8556 46.6665 59.4999 46.6665H64.1666C64.8108 46.6665 65.3332 46.1441 65.3332 45.4998V40.8332C65.3332 40.1889 64.8108 39.6665 64.1666 39.6665ZM62.9999 44.3332H60.6666V41.9998H62.9999V44.3332Z" fill="#FF0000"/>
<path d="M45.5001 48.9998H40.8334C40.1891 48.9998 39.6667 49.5221 39.6667 50.1664V54.8331C39.6667 55.4774 40.1891 55.9997 40.8334 55.9997H45.5001C46.1443 55.9997 46.6667 55.4774 46.6667 54.8331V50.1664C46.6667 49.5221 46.1443 48.9998 45.5001 48.9998ZM44.3334 53.6664H42.0001V51.3331H44.3334V53.6664Z" fill="#FF0000"/>
<path d="M54.8333 48.9998H50.1667C49.5224 48.9998 49 49.5221 49 50.1664V54.8331C49 55.4774 49.5224 55.9997 50.1667 55.9997H54.8333C55.4776 55.9997 56 55.4774 56 54.8331V50.1664C56 49.5221 55.4776 48.9998 54.8333 48.9998ZM53.6666 53.6664H51.3333V51.3331H53.6666V53.6664Z" fill="#FF0000"/>
<path d="M45.5001 58.3331H40.8334C40.1891 58.3331 39.6667 58.8555 39.6667 59.4998V64.1664C39.6667 64.8107 40.1891 65.3331 40.8334 65.3331H45.5001C46.1443 65.3331 46.6667 64.8107 46.6667 64.1664V59.4998C46.6667 58.8555 46.1443 58.3331 45.5001 58.3331ZM44.3334 62.9998H42.0001V60.6665H44.3334V62.9998Z" fill="#FF0000"/>
<path d="M54.8333 58.3331H50.1667C49.5224 58.3331 49 58.8555 49 59.4998V64.1664C49 64.8107 49.5224 65.3331 50.1667 65.3331H54.8333C55.4776 65.3331 56 64.8107 56 64.1664V59.4998C56 58.8555 55.4776 58.3331 54.8333 58.3331ZM53.6666 62.9998H51.3333V60.6665H53.6666V62.9998Z" fill="#FF0000"/>
<path d="M64.1666 48.9998H59.4999C58.8556 48.9998 58.3333 49.5221 58.3333 50.1664V64.1664C58.3333 64.8106 58.8556 65.333 59.4999 65.333H64.1666C64.8108 65.333 65.3332 64.8106 65.3332 64.1664V50.1664C65.3332 49.5221 64.8108 48.9998 64.1666 48.9998ZM62.9999 62.9997H60.6666V51.3331H62.9999V62.9997Z" fill="#FF0000"/>
<path d="M65.3333 30.3333H63V32.6666H65.3333V30.3333Z" fill="#FF0000"/>
<path d="M60.6666 30.3333H58.3333V32.6666H60.6666V30.3333Z" fill="#FF0000"/>
<path d="M55.9998 30.3333H53.6665V32.6666H55.9998V30.3333Z" fill="#FF0000"/>
</g>
<defs>
<clipPath id="clip0_4906_594">
<rect width="70" height="70" fill="white"/>
</clipPath>
</defs>
</svg>
