<svg width="70" height="70" viewBox="0 0 70 70" fill="none" xmlns="http://www.w3.org/2000/svg">
<path d="M60.0834 2.33333H56.5834V1.16667C56.5834 0.522375 56.061 0 55.4167 0C54.7725 0 54.2501 0.522375 54.2501 1.16667V2.33333H51.9167V1.16667C51.9167 0.522375 51.3944 0 50.7501 0C50.1058 0 49.5834 0.522375 49.5834 1.16667V2.33333H47.2501V1.16667C47.2501 0.522375 46.7277 0 46.0834 0C45.4391 0 44.9167 0.522375 44.9167 1.16667V2.33333H42.5834V1.16667C42.5834 0.522375 42.061 0 41.4167 0C40.7725 0 40.2501 0.522375 40.2501 1.16667V2.33333H23.9167V1.16667C23.9167 0.522375 23.3944 0 22.7501 0C22.1058 0 21.5834 0.522375 21.5834 1.16667V2.33333H19.2501V1.16667C19.2501 0.522375 18.7277 0 18.0834 0C17.4391 0 16.9167 0.522375 16.9167 1.16667V2.33333H14.5834V1.16667C14.5834 0.522375 14.061 0 13.4167 0C12.7725 0 12.2501 0.522375 12.2501 1.16667V2.33333H9.91675V1.16667C9.91675 0.522375 9.39437 0 8.75008 0C8.10579 0 7.58341 0.522375 7.58341 1.16667V2.33333H4.08341C3.43912 2.33333 2.91675 2.85571 2.91675 3.5V58.3333C2.91675 58.9776 3.43912 59.5 4.08341 59.5H37.9751C38.6194 59.5016 39.1431 58.9805 39.1447 58.3362C39.1447 58.3081 39.1438 58.2798 39.1417 58.2517L39.1324 58.1163C39.1067 57.8013 39.0834 57.4863 39.0834 57.1667C39.0872 56.012 39.2234 54.8615 39.4894 53.7378C39.749 52.6193 40.1369 51.5344 40.6456 50.505C40.6957 50.4023 40.7412 50.2985 40.7937 50.197C40.9489 49.9007 41.1169 49.6137 41.2907 49.3278C41.3456 49.238 41.3992 49.1458 41.4564 49.0572C41.6454 48.7608 41.8445 48.4719 42.0537 48.1903C42.0969 48.1308 42.1412 48.0737 42.1856 48.013C42.4189 47.7081 42.6611 47.4126 42.9124 47.1263L42.9474 47.0878C44.614 45.2279 46.7087 43.8019 49.0502 42.9333L49.2556 42.8575C49.5706 42.7467 49.8902 42.6487 50.2134 42.5577C50.3592 42.5168 50.5074 42.4795 50.6556 42.441C50.9286 42.3733 51.2027 42.3103 51.4804 42.2578C51.7137 42.2147 51.9564 42.182 52.1956 42.1493C52.4067 42.119 52.6156 42.0852 52.8291 42.0653C53.2957 42.021 53.7706 41.993 54.2501 41.993C54.5662 41.993 54.8777 42.0175 55.1834 42.0385L55.3292 42.049C55.3386 42.049 55.3491 42.049 55.3584 42.049C56.8313 42.1597 58.2803 42.4839 59.6599 43.0115C60.2603 43.2454 60.9365 42.9483 61.1705 42.348C61.223 42.2132 61.2499 42.07 61.2501 41.9253V3.5C61.2501 2.85571 60.7277 2.33333 60.0834 2.33333ZM39.1464 48.3735C39.1056 48.44 39.0624 48.503 39.0251 48.5695C38.8571 48.8647 38.7054 49.1692 38.5584 49.4748C38.4756 49.6428 38.3916 49.8097 38.3146 49.9812C38.1874 50.2623 38.0684 50.5493 37.9564 50.8387C37.9447 50.8678 37.9319 50.8947 37.9202 50.9238V45.5H41.2464C40.4512 46.3845 39.7477 47.3473 39.1464 48.3735ZM44.9167 42.3897C44.5154 42.644 44.1281 42.9147 43.7501 43.1993V43.1667H37.9167V36.1667H44.9167V42.3897ZM44.9167 33.8333H37.9167V26.8333H44.9167V33.8333ZM44.9167 24.5H37.9167V17.5H44.9167V24.5ZM54.2501 26.8333V33.8333H47.2501V26.8333H54.2501ZM47.2501 24.5V17.5H54.2501V24.5H47.2501ZM54.2524 39.6667C53.7064 39.6667 53.1674 39.6982 52.6331 39.7483C52.3997 39.7693 52.1816 39.8055 51.9552 39.8347C51.6694 39.8732 51.3847 39.9128 51.1036 39.9653C50.8224 40.0178 50.5132 40.082 50.2216 40.1532C50.0431 40.1963 49.8646 40.2418 49.6872 40.2908C49.3372 40.3865 48.9872 40.4903 48.6372 40.607C48.5929 40.6233 48.5497 40.6408 48.5054 40.656C48.0807 40.8042 47.6607 40.9593 47.2524 41.1378V36.1667H54.2524V39.6667ZM58.9167 40.3107C58.151 40.096 57.3713 39.9341 56.5834 39.8265V16.3333C56.5834 15.689 56.061 15.1667 55.4167 15.1667H8.75008C8.10579 15.1667 7.58341 15.689 7.58341 16.3333V53.6667C7.58341 54.311 8.10579 54.8333 8.75008 54.8333H36.9239C36.814 55.6064 36.7559 56.3859 36.7501 57.1667H5.25008V12.8333H58.9167V40.3107ZM28.5834 43.1667V36.1667H35.5834V43.1667H28.5834ZM35.5834 45.5V52.5H28.5834V45.5H35.5834ZM28.5834 33.8333V26.8333H35.5834V33.8333H28.5834ZM28.5834 24.5V17.5H35.5834V24.5H28.5834ZM19.2501 43.1667V36.1667H26.2501V43.1667H19.2501ZM26.2501 45.5V52.5H19.2501V45.5H26.2501ZM19.2501 33.8333V26.8333H26.2501V33.8333H19.2501ZM19.2501 24.5V17.5H26.2501V24.5H19.2501ZM9.91675 43.1667V36.1667H16.9167V43.1667H9.91675ZM16.9167 45.5V52.5H9.91675V45.5H16.9167ZM9.91675 33.8333V26.8333H16.9167V33.8333H9.91675ZM9.91675 24.5V17.5H16.9167V24.5H9.91675ZM58.9167 10.5H5.25008V4.66667H7.58341V5.83333C7.58341 6.47762 8.10579 7 8.75008 7C9.39437 7 9.91675 6.47762 9.91675 5.83333V4.66667H12.2501V5.83333C12.2501 6.47762 12.7725 7 13.4167 7C14.061 7 14.5834 6.47762 14.5834 5.83333V4.66667H16.9167V5.83333C16.9167 6.47762 17.4391 7 18.0834 7C18.7277 7 19.2501 6.47762 19.2501 5.83333V4.66667H21.5834V5.83333C21.5834 6.47762 22.1058 7 22.7501 7C23.3944 7 23.9167 6.47762 23.9167 5.83333V4.66667H40.2501V5.83333C40.2501 6.47762 40.7725 7 41.4167 7C42.061 7 42.5834 6.47762 42.5834 5.83333V4.66667H44.9167V5.83333C44.9167 6.47762 45.4391 7 46.0834 7C46.7277 7 47.2501 6.47762 47.2501 5.83333V4.66667H49.5834V5.83333C49.5834 6.47762 50.1058 7 50.7501 7C51.3944 7 51.9167 6.47762 51.9167 5.83333V4.66667H54.2501V5.83333C54.2501 6.47762 54.7725 7 55.4167 7C56.061 7 56.5834 6.47762 56.5834 5.83333V4.66667H58.9167V10.5Z" fill="#FF0000"/>
<path d="M54.2501 44.3334C47.1624 44.3334 41.4167 50.0791 41.4167 57.1667C41.4167 64.2544 47.1624 70 54.2501 70C61.3377 70 67.0834 64.2544 67.0834 57.1667C67.0751 50.0826 61.3342 44.3417 54.2501 44.3334ZM54.2501 67.6667C48.4512 67.6667 43.7501 62.9656 43.7501 57.1667C43.7501 51.3676 48.4512 46.6667 54.2501 46.6667C60.0491 46.6667 64.7501 51.3676 64.7501 57.1667C64.7437 62.963 60.0464 67.6603 54.2501 67.6667Z" fill="#FF0000"/>
<path d="M60.8797 50.5085C60.4276 50.0717 59.7107 50.0717 59.2586 50.5085L54.2501 55.517L51.5749 52.8418C51.1114 52.3941 50.3729 52.4069 49.9252 52.8704C49.4885 53.3225 49.4885 54.0394 49.9252 54.4915L53.4252 57.9915C53.8808 58.4469 54.6193 58.4469 55.0749 57.9915L60.9082 52.1582C61.3559 51.6947 61.3431 50.9562 60.8797 50.5085Z" fill="#FF0000"/>
</svg>
