<svg width="70" height="70" viewBox="0 0 70 70" fill="none" xmlns="http://www.w3.org/2000/svg">
<g clip-path="url(#clip0_4906_523)">
<path d="M35 0C31.134 0 28 3.13396 28 7C28 10.866 31.134 14 35 14C38.8644 13.9962 41.9962 10.8644 42 7C42 3.13396 38.866 0 35 0ZM35 11.6667C32.4227 11.6667 30.3333 9.57731 30.3333 7C30.3333 4.42269 32.4227 2.33333 35 2.33333C37.5773 2.33333 39.6667 4.42269 39.6667 7C39.6667 9.57731 37.5773 11.6667 35 11.6667Z" fill="#FF0000"/>
<path d="M39.6667 15.1666H39.3913L39.1452 15.2891C36.5346 16.5889 33.4654 16.5889 30.8548 15.2891L30.6087 15.1666H30.3333C27.1133 15.1704 24.5038 17.78 24.5 21V28C24.5 29.933 26.067 31.5 28 31.5H42C43.933 31.5 45.5 29.933 45.5 28V21C45.4962 17.78 42.8867 15.1704 39.6667 15.1666ZM43.1667 28C43.1667 28.6443 42.6443 29.1666 42 29.1666H28C27.3557 29.1666 26.8333 28.6443 26.8333 28V21C26.8336 19.1636 28.253 17.6397 30.0848 17.5093C33.202 18.956 36.7981 18.956 39.9152 17.5093C41.7468 17.6397 43.1664 19.1636 43.1667 21V28Z" fill="#FF0000"/>
<path d="M59.5 38.5C55.634 38.5 52.5 41.634 52.5 45.5C52.5 49.366 55.634 52.5 59.5 52.5C63.366 52.5 66.5 49.366 66.5 45.5C66.4962 41.6356 63.3644 38.5038 59.5 38.5ZM59.5 50.1667C56.9227 50.1667 54.8333 48.0773 54.8333 45.5C54.8333 42.9227 56.9227 40.8333 59.5 40.8333C62.0773 40.8333 64.1667 42.9227 64.1667 45.5C64.1667 48.0773 62.0773 50.1667 59.5 50.1667Z" fill="#FF0000"/>
<path d="M64.1667 53.6666H63.8913L63.6452 53.7833C61.0346 55.083 57.9654 55.083 55.3548 53.7833L55.1087 53.6666H54.8333C51.6133 53.6704 49.0038 56.28 49 59.5V66.5C49 68.433 50.567 70 52.5 70H66.5C68.433 70 70 68.433 70 66.5V59.5C69.9962 56.28 67.3867 53.6704 64.1667 53.6666ZM67.6667 66.5C67.6667 67.1443 67.1443 67.6666 66.5 67.6666H52.5C51.8557 67.6666 51.3333 67.1443 51.3333 66.5V59.5C51.3336 57.6636 52.753 56.1397 54.5848 56.0093C57.702 57.456 61.298 57.456 64.4152 56.0093C66.247 56.1397 67.6664 57.6636 67.6667 59.5V66.5Z" fill="#FF0000"/>
<path d="M10.5 38.5C6.63396 38.5 3.5 41.634 3.5 45.5C3.5 49.366 6.63396 52.5 10.5 52.5C14.366 52.5 17.5 49.366 17.5 45.5C17.4962 41.6356 14.3644 38.5038 10.5 38.5ZM10.5 50.1667C7.92269 50.1667 5.83333 48.0773 5.83333 45.5C5.83333 42.9227 7.92269 40.8333 10.5 40.8333C13.0773 40.8333 15.1667 42.9227 15.1667 45.5C15.1667 48.0773 13.0773 50.1667 10.5 50.1667Z" fill="#FF0000"/>
<path d="M15.1667 53.6666H14.8913L14.6452 53.7833C12.0346 55.083 8.96539 55.083 6.35483 53.7833L6.10867 53.6666H5.83333C2.61333 53.6704 0.00379167 56.28 0 59.5V66.5C0 68.433 1.56698 70 3.5 70H17.5C19.433 70 21 68.433 21 66.5V59.5C20.9962 56.28 18.3867 53.6704 15.1667 53.6666ZM18.6667 66.5C18.6667 67.1443 18.1443 67.6666 17.5 67.6666H3.5C2.85571 67.6666 2.33333 67.1443 2.33333 66.5V59.5C2.33362 57.6636 3.75302 56.1397 5.58483 56.0093C8.70202 57.456 12.298 57.456 15.4152 56.0093C17.247 56.1397 18.6664 57.6636 18.6667 59.5V66.5Z" fill="#FF0000"/>
<path d="M46.5751 59.2486C46.5745 59.2473 46.5739 59.246 46.5734 59.2445C46.3208 58.6517 45.6355 58.3759 45.0428 58.6285C39.7746 60.8364 33.9238 61.2392 28.4027 59.7742L29.4947 59.4533C30.1133 59.2722 30.468 58.6241 30.2868 58.0055C30.1057 57.3869 29.4576 57.0322 28.839 57.2133L24.1723 58.5818C24.1548 58.5818 24.142 58.6017 24.1257 58.6075C24.0176 58.6478 23.9161 58.704 23.8247 58.7743C23.7841 58.7962 23.7452 58.8207 23.708 58.8478C23.5849 58.9577 23.4874 59.093 23.4222 59.2445C23.3589 59.397 23.3287 59.5613 23.3335 59.7263C23.3619 59.8843 23.4009 60.0402 23.4502 60.193C23.4572 60.2093 23.4502 60.228 23.463 60.2443L25.7963 64.7092C26.0947 65.2807 26.7998 65.5022 27.3713 65.2038C27.9429 64.9055 28.1644 64.2004 27.866 63.6288L26.9163 61.8135C33.1892 63.6991 39.9239 63.3327 45.9552 60.7775C46.5484 60.5265 46.8261 59.842 46.5751 59.2486Z" fill="#FF0000"/>
<path d="M66.1582 30.6752C65.7026 30.2197 64.9641 30.2197 64.5085 30.6752L62.8577 32.326C61.8917 22.1075 55.404 13.2399 45.9573 9.226C45.3645 8.97342 44.6793 9.24919 44.4267 9.842C44.1741 10.4348 44.4499 11.1201 45.0427 11.3727C53.5171 14.9743 59.4078 22.8452 60.4742 31.9912L59.1582 30.6752C58.6947 30.2275 57.9562 30.2403 57.5085 30.7037C57.0719 31.1558 57.0719 31.8726 57.5085 32.3248L61.0085 35.8248C61.4635 36.281 62.2023 36.282 62.6585 35.8269C62.6592 35.8261 62.6599 35.8254 62.6605 35.8248L66.1605 32.3248C66.6154 31.8687 66.6143 31.1302 66.1582 30.6752Z" fill="#FF0000"/>
<path d="M25.6328 10.1022C25.629 10.0341 25.619 9.96658 25.6025 9.90038C25.6025 9.88988 25.5897 9.88288 25.585 9.87121C25.5803 9.85954 25.585 9.85138 25.585 9.84204C25.5532 9.78531 25.5165 9.73135 25.4753 9.68104C25.4376 9.61265 25.3929 9.54819 25.3423 9.48854C25.2734 9.42744 25.1969 9.37538 25.1148 9.33338C25.0739 9.29852 25.0301 9.26688 24.9842 9.23888L20.3175 7.10738C19.7215 6.86267 19.0399 7.14748 18.7952 7.7435C18.5637 8.30715 18.8051 8.95406 19.3492 9.22838L21.7653 10.3332C12.6693 15.2013 6.99344 24.6832 7.00001 35C7.00001 35.6443 7.52238 36.1667 8.16667 36.1667C8.81096 36.1667 9.33334 35.6443 9.33334 35C9.32751 25.9156 14.1314 17.507 21.9602 12.8987L21.1167 14.6615C20.8386 15.2415 21.0823 15.9371 21.6615 16.2167C21.8189 16.2936 21.9915 16.3335 22.1667 16.3334C22.6147 16.3328 23.0227 16.0757 23.2167 15.6719L25.55 10.8034C25.55 10.7917 25.55 10.7789 25.5593 10.7672C25.5897 10.6874 25.6108 10.6045 25.6223 10.5199C25.6423 10.457 25.6572 10.3927 25.6667 10.3274C25.6627 10.2514 25.6515 10.176 25.6328 10.1022Z" fill="#FF0000"/>
</g>
<defs>
<clipPath id="clip0_4906_523">
<rect width="70" height="70" fill="white"/>
</clipPath>
</defs>
</svg>
