<svg width="70" height="70" viewBox="0 0 70 70" fill="none" xmlns="http://www.w3.org/2000/svg">
<g clip-path="url(#clip0_4906_650)">
<path d="M61.7772 12.4646L59.4439 5.46461C59.2418 4.85284 58.5819 4.52078 57.9701 4.72291C57.9154 4.74099 57.8621 4.76316 57.8106 4.78911L50.8106 8.28909C50.234 8.5771 50 9.27812 50.288 9.85474C50.576 10.4314 51.277 10.6654 51.8536 10.3774L55.6663 8.47108C45.633 26.8203 27.3352 38.4997 8.16699 38.4997V40.833C28.4412 40.833 47.761 28.3684 58.1104 8.85491L59.5606 13.2019C59.7641 13.8139 60.4255 14.1451 61.0376 13.9415C61.6496 13.738 61.9808 13.0766 61.7772 12.4646Z" fill="#FF0000"/>
<path d="M68.833 0H1.1669C0.522615 0 0.000244141 0.522371 0.000244141 1.16666V53.6662C0.000244141 54.3105 0.522615 54.8329 1.1669 54.8329H21.7537L17.5538 68.4898C17.3643 69.1058 17.7101 69.7587 18.3261 69.9481C18.9421 70.1375 19.595 69.7917 19.7844 69.1758L22.0419 61.8328H47.958L50.2178 69.1758C50.4073 69.7917 51.0602 70.1375 51.6761 69.9481C52.2921 69.7587 52.6379 69.1058 52.4485 68.4898L48.2462 54.8329H68.833C69.4773 54.8329 69.9997 54.3105 69.9997 53.6662V1.16666C69.9997 0.522371 69.4773 0 68.833 0ZM22.7594 59.4995L24.1955 54.8329H45.8044L47.2405 59.4995H22.7594ZM67.6664 52.4996H2.33356V2.33331H67.6664V52.4996Z" fill="#FF0000"/>
<path d="M14.0003 43.1663H9.33365C8.68936 43.1663 8.16699 43.6886 8.16699 44.3329V48.9995C8.16699 49.6438 8.68936 50.1662 9.33365 50.1662H14.0003C14.6446 50.1662 15.1669 49.6438 15.1669 48.9995V44.3329C15.1669 43.6886 14.6446 43.1663 14.0003 43.1663ZM12.8336 47.8329H10.5003V45.4996H12.8336V47.8329Z" fill="#FF0000"/>
<path d="M25.6668 40.833H21.0002C20.3559 40.833 19.8335 41.3554 19.8335 41.9997V48.9996C19.8335 49.6439 20.3559 50.1663 21.0002 50.1663H25.6668C26.3111 50.1663 26.8334 49.6439 26.8334 48.9996V41.9997C26.8334 41.3554 26.3111 40.833 25.6668 40.833ZM24.5001 47.8329H22.1668V43.1663H24.5001V47.8329Z" fill="#FF0000"/>
<path d="M37.3333 36.1664H32.6667C32.0224 36.1664 31.5 36.6888 31.5 37.333V48.9996C31.5 49.6439 32.0224 50.1663 32.6667 50.1663H37.3333C37.9776 50.1663 38.4999 49.6439 38.4999 48.9996V37.333C38.4999 36.6888 37.9776 36.1664 37.3333 36.1664ZM36.1666 47.833H33.8333V38.4997H36.1666V47.833Z" fill="#FF0000"/>
<path d="M48.9998 29.1664H44.3332C43.6889 29.1664 43.1665 29.6888 43.1665 30.333V48.9995C43.1665 49.6438 43.6889 50.1662 44.3332 50.1662H48.9998C49.6441 50.1662 50.1664 49.6438 50.1664 48.9995V30.333C50.1664 29.6888 49.6441 29.1664 48.9998 29.1664ZM47.8331 47.8329H45.4998V31.4997H47.8331V47.8329Z" fill="#FF0000"/>
<path d="M60.6665 16.3333H55.9999C55.3556 16.3333 54.8333 16.8556 54.8333 17.4999V48.9996C54.8333 49.6439 55.3556 50.1663 55.9999 50.1663H60.6665C61.3108 50.1663 61.8332 49.6439 61.8332 48.9996V17.4999C61.8332 16.8556 61.3108 16.3333 60.6665 16.3333ZM59.4999 47.833H57.1666V18.6666H59.4999V47.833Z" fill="#FF0000"/>
</g>
<defs>
<clipPath id="clip0_4906_650">
<rect width="70" height="70" fill="white"/>
</clipPath>
</defs>
</svg>
