<svg width="70" height="70" fill="none" xmlns="http://www.w3.org/2000/svg"><path d="M60.083 2.333h-3.5V1.167a1.167 1.167 0 00-2.333 0v1.166h-2.333V1.167a1.167 1.167 0 10-2.334 0v1.166H47.25V1.167a1.167 1.167 0 00-2.333 0v1.166h-2.334V1.167a1.167 1.167 0 00-2.333 0v1.166H23.917V1.167a1.167 1.167 0 10-2.334 0v1.166H19.25V1.167a1.167 1.167 0 00-2.333 0v1.166h-2.334V1.167a1.167 1.167 0 00-2.333 0v1.166H9.917V1.167a1.167 1.167 0 00-2.334 0v1.166h-3.5c-.644 0-1.166.523-1.166 1.167v54.833c0 .645.522 1.167 1.166 1.167h33.892a1.167 1.167 0 001.167-1.248l-.01-.136a11.64 11.64 0 01-.049-.95c.004-1.154.14-2.304.406-3.428.26-1.119.648-2.204 1.157-3.233.05-.103.095-.207.148-.308.155-.296.323-.583.497-.87.055-.089.108-.181.165-.27.19-.296.388-.585.598-.867.043-.06.087-.116.132-.177.233-.305.475-.6.726-.887l.035-.038a15.375 15.375 0 016.103-4.155l.206-.075c.315-.111.634-.21.957-.3.146-.041.294-.078.443-.117.273-.068.547-.13.824-.183.234-.043.476-.076.716-.109.21-.03.42-.064.633-.084.467-.044.942-.072 1.421-.072.316 0 .628.024.933.045l.146.011h.03a15.24 15.24 0 014.3.962 1.167 1.167 0 001.591-1.086V3.5c0-.644-.522-1.167-1.167-1.167zm-20.937 46.04c-.04.067-.084.13-.12.197-.169.295-.32.6-.468.905-.082.168-.166.335-.243.506-.128.281-.247.568-.359.858-.011.029-.024.056-.036.085V45.5h3.326a17.626 17.626 0 00-2.1 2.873zm5.77-5.983c-.4.254-.788.525-1.166.81v-.033h-5.833v-7h7v6.223zm0-8.557h-7v-7h7v7zm0-9.333h-7v-7h7v7zm9.334 2.333v7h-7v-7h7zm-7-2.333v-7h7v7h-7zm7.002 15.167c-.546 0-1.085.031-1.619.081-.233.021-.451.058-.678.087-.286.038-.57.078-.851.13a16.814 16.814 0 00-1.417.326c-.35.096-.7.2-1.05.316-.044.016-.087.034-.132.049-.424.148-.844.303-1.253.482v-4.971h7v3.5zm4.665.644a17.327 17.327 0 00-2.334-.484V16.333c0-.644-.522-1.166-1.166-1.166H8.75c-.644 0-1.167.522-1.167 1.166v37.334c0 .644.523 1.166 1.167 1.166h28.174c-.11.773-.168 1.553-.174 2.334H5.25V12.833h53.667v27.478zm-30.334 2.856v-7h7v7h-7zm7 2.333v7h-7v-7h7zm-7-11.667v-7h7v7h-7zm0-9.333v-7h7v7h-7zM19.25 43.167v-7h7v7h-7zm7 2.333v7h-7v-7h7zm-7-11.667v-7h7v7h-7zm0-9.333v-7h7v7h-7zM9.917 43.167v-7h7v7h-7zm7 2.333v7h-7v-7h7zm-7-11.667v-7h7v7h-7zm0-9.333v-7h7v7h-7zm49-14H5.25V4.667h2.333v1.166a1.167 1.167 0 002.334 0V4.667h2.333v1.166a1.167 1.167 0 002.333 0V4.667h2.334v1.166a1.167 1.167 0 002.333 0V4.667h2.333v1.166a1.167 1.167 0 002.334 0V4.667H40.25v1.166a1.167 1.167 0 002.333 0V4.667h2.334v1.166a1.167 1.167 0 002.333 0V4.667h2.333v1.166a1.167 1.167 0 002.334 0V4.667h2.333v1.166a1.167 1.167 0 002.333 0V4.667h2.334V10.5z" fill="red"/><path d="M54.25 44.333c-7.088 0-12.833 5.746-12.833 12.834C41.417 64.254 47.162 70 54.25 70s12.833-5.746 12.833-12.833c-.008-7.084-5.749-12.825-12.833-12.834zm0 23.334c-5.799 0-10.5-4.701-10.5-10.5 0-5.8 4.701-10.5 10.5-10.5 5.8 0 10.5 4.7 10.5 10.5-.006 5.796-4.704 10.493-10.5 10.5z" fill="red"/><path d="M60.88 50.508a1.167 1.167 0 00-1.621 0l-5.009 5.009-2.675-2.675a1.167 1.167 0 00-1.65 1.65l3.5 3.5a1.167 1.167 0 001.65 0l5.833-5.834a1.167 1.167 0 00-.028-1.65z" fill="red"/></svg>