<svg width="70" height="70" fill="none" xmlns="http://www.w3.org/2000/svg"><g clip-path="url(#clip0_4906_523)" fill="red"><path d="M35 0a7 7 0 100 14 7.007 7.007 0 007-7 7 7 0 00-7-7zm0 11.667a4.667 4.667 0 110-9.334 4.667 4.667 0 010 9.334zm4.667 3.5h-.276l-.246.122a9.3 9.3 0 01-8.29 0l-.246-.122h-.276A5.84 5.84 0 0024.5 21v7a3.5 3.5 0 003.5 3.5h14a3.5 3.5 0 003.5-3.5v-7a5.84 5.84 0 00-5.833-5.833zM43.167 28c0 .644-.523 1.167-1.167 1.167H28A1.167 1.167 0 0126.833 28v-7a3.5 3.5 0 013.252-3.49 11.676 11.676 0 009.83 0A3.5 3.5 0 0143.167 21v7zM59.5 38.5a7 7 0 107 7 7.007 7.007 0 00-7-7zm0 11.667a4.667 4.667 0 110-9.334 4.667 4.667 0 010 9.334zm4.667 3.5h-.276l-.246.116a9.301 9.301 0 01-8.29 0l-.246-.116h-.276A5.84 5.84 0 0049 59.5v7a3.5 3.5 0 003.5 3.5h14a3.5 3.5 0 003.5-3.5v-7a5.84 5.84 0 00-5.833-5.833zm3.5 12.833c0 .644-.523 1.167-1.167 1.167h-14a1.167 1.167 0 01-1.167-1.167v-7a3.5 3.5 0 013.252-3.49 11.676 11.676 0 009.83 0 3.5 3.5 0 013.252 3.49v7zM10.5 38.5a7 7 0 107 7 7.007 7.007 0 00-7-7zm0 11.667a4.667 4.667 0 110-9.334 4.667 4.667 0 010 9.334zm4.667 3.5h-.276l-.246.116a9.301 9.301 0 01-8.29 0l-.246-.116h-.276A5.84 5.84 0 000 59.5v7A3.5 3.5 0 003.5 70h14a3.5 3.5 0 003.5-3.5v-7a5.84 5.84 0 00-5.833-5.833zm3.5 12.833c0 .644-.523 1.167-1.167 1.167h-14A1.167 1.167 0 012.333 66.5v-7a3.5 3.5 0 013.252-3.49 11.675 11.675 0 009.83 0 3.5 3.5 0 013.252 3.49v7zm27.908-7.251l-.002-.005a1.167 1.167 0 00-1.53-.615 25.88 25.88 0 01-16.64 1.145l1.092-.32a1.167 1.167 0 10-.656-2.24l-4.667 1.368c-.017 0-.03.02-.046.026-.108.04-.21.096-.301.166-.04.022-.08.047-.117.074a1.14 1.14 0 00-.286.397 1.168 1.168 0 00-.088.481c.028.158.067.314.116.467.007.016 0 .035.013.051l2.333 4.465a1.167 1.167 0 102.07-1.08l-.95-1.816a28.082 28.082 0 0019.04-1.035 1.17 1.17 0 00.62-1.53zm19.583-28.574a1.167 1.167 0 00-1.65 0l-1.65 1.651a27.958 27.958 0 00-16.9-23.1 1.167 1.167 0 10-.915 2.147A25.628 25.628 0 0160.474 31.99l-1.316-1.316a1.167 1.167 0 00-1.65 1.65l3.5 3.5a1.167 1.167 0 001.65.002l.002-.002 3.5-3.5a1.166 1.166 0 00-.002-1.65zM25.633 10.102a1.084 1.084 0 00-.03-.202c0-.01-.013-.017-.018-.029-.005-.011 0-.02 0-.029a1.114 1.114 0 00-.11-.161 1.174 1.174 0 00-.133-.192 1.093 1.093 0 00-.227-.156 1.022 1.022 0 00-.13-.094l-4.668-2.132a1.167 1.167 0 00-.968 2.121l2.416 1.105A27.957 27.957 0 007 35a1.167 1.167 0 002.333 0A25.627 25.627 0 0121.96 12.899l-.843 1.763a1.167 1.167 0 001.05 1.671c.448 0 .856-.257 1.05-.661l2.333-4.869c0-.011 0-.024.01-.036.03-.08.05-.162.062-.247a1.21 1.21 0 00.045-.193 1.166 1.166 0 00-.034-.225z"/></g><defs><clipPath id="clip0_4906_523"><path fill="#fff" d="M0 0h70v70H0z"/></clipPath></defs></svg>