<svg width="70" height="70" fill="none" xmlns="http://www.w3.org/2000/svg"><g clip-path="url(#clip0_4906_650)" fill="red"><path d="M61.777 12.465l-2.333-7a1.167 1.167 0 00-1.633-.676l-7 3.5a1.167 1.167 0 001.043 2.088l3.812-1.906C45.633 26.821 27.336 38.5 8.167 38.5v2.333c20.274 0 39.594-12.465 49.943-31.978l1.45 4.347a1.168 1.168 0 002.217-.737z"/><path d="M68.833 0H1.167C.523 0 0 .522 0 1.167v52.5c0 .643.523 1.166 1.167 1.166h20.587l-4.2 13.657a1.167 1.167 0 102.23.686l2.258-7.343h25.916l2.26 7.343a1.167 1.167 0 002.23-.686l-4.202-13.657h20.587c.644 0 1.167-.523 1.167-1.167v-52.5C70 .523 69.477 0 68.833 0zM22.759 59.5l1.436-4.667h21.61l1.435 4.666H22.76zm44.907-7H2.334V2.333h65.332V52.5z"/><path d="M14 43.166H9.334c-.645 0-1.167.523-1.167 1.167v4.666c0 .645.522 1.167 1.167 1.167H14c.645 0 1.167-.522 1.167-1.166v-4.667c0-.644-.522-1.167-1.167-1.167zm-1.166 4.667H10.5V45.5h2.334v2.333zm12.833-7H21c-.644 0-1.166.522-1.166 1.167v7c0 .644.522 1.166 1.166 1.166h4.667c.644 0 1.166-.522 1.166-1.166v-7c0-.645-.522-1.167-1.166-1.167zm-1.167 7h-2.333v-4.667H24.5v4.667zm12.833-11.667h-4.666c-.645 0-1.167.523-1.167 1.167V49c0 .644.522 1.166 1.167 1.166h4.666c.645 0 1.167-.522 1.167-1.166V37.333c0-.644-.522-1.167-1.167-1.167zm-1.166 11.667h-2.334V38.5h2.334v9.333zM49 29.166h-4.667c-.644 0-1.166.523-1.166 1.167v18.666c0 .645.522 1.167 1.166 1.167H49c.644 0 1.166-.522 1.166-1.166V30.332c0-.644-.522-1.167-1.166-1.167zm-1.167 18.667H45.5V31.5h2.333v16.333zm12.833-31.5H56c-.644 0-1.167.523-1.167 1.167V49c0 .644.523 1.166 1.167 1.166h4.666c.645 0 1.167-.522 1.167-1.166V17.5c0-.644-.522-1.167-1.166-1.167zm-1.166 31.5h-2.333V18.667H59.5v29.166z"/></g><defs><clipPath id="clip0_4906_650"><path fill="#fff" d="M0 0h70v70H0z"/></clipPath></defs></svg>